<svg width="1200" height="760" viewBox="0 0 1200 760" fill="none" xmlns="http://www.w3.org/2000/svg">
  <rect width="1200" height="760" rx="32" fill="#F8FAFC"/>
  <rect x="24" y="24" width="1152" height="712" rx="28" fill="#FFFFFF" stroke="#E2E8F0" stroke-width="2"/>

  <text x="80" y="92" fill="#0F172A" font-family="ui-sans-serif, -apple-system, BlinkMacSystemFont, 'Segoe UI', sans-serif" font-size="34" font-weight="700">Architecture At A Glance</text>
  <text x="80" y="126" fill="#475569" font-family="ui-sans-serif, -apple-system, BlinkMacSystemFont, 'Segoe UI', sans-serif" font-size="18">Platform shells route actions into shared app orchestration, core services, and infrastructure.</text>

  <rect x="80" y="182" width="240" height="78" rx="20" fill="#EFF6FF" stroke="#2563EB" stroke-width="3"/>
  <text x="104" y="214" fill="#1D4ED8" font-family="ui-monospace, 'SFMono-Regular', Menlo, monospace" font-size="17" font-weight="700">Platform: macOS shell</text>
  <text x="104" y="238" fill="#1E3A8A" font-family="ui-monospace, 'SFMono-Regular', Menlo, monospace" font-size="14">SwiftUI + AppKit bridges</text>

  <rect x="80" y="286" width="240" height="78" rx="20" fill="#EFF6FF" stroke="#2563EB" stroke-width="3"/>
  <text x="104" y="318" fill="#1D4ED8" font-family="ui-monospace, 'SFMono-Regular', Menlo, monospace" font-size="17" font-weight="700">Platform: iOS/iPadOS shell</text>
  <text x="104" y="342" fill="#1E3A8A" font-family="ui-monospace, 'SFMono-Regular', Menlo, monospace" font-size="14">SwiftUI + UIKit bridges</text>

  <rect x="420" y="160" width="314" height="86" rx="20" fill="#ECFDF5" stroke="#059669" stroke-width="3"/>
  <text x="446" y="193" fill="#047857" font-family="ui-monospace, 'SFMono-Regular', Menlo, monospace" font-size="17" font-weight="700">App Layer: user actions</text>
  <text x="446" y="218" fill="#065F46" font-family="ui-monospace, 'SFMono-Regular', Menlo, monospace" font-size="14">toolbar / menu / shortcuts</text>

  <rect x="420" y="272" width="314" height="86" rx="20" fill="#ECFDF5" stroke="#059669" stroke-width="3"/>
  <text x="446" y="305" fill="#047857" font-family="ui-monospace, 'SFMono-Regular', Menlo, monospace" font-size="17" font-weight="700">App Layer: EditorViewModel</text>
  <text x="446" y="330" fill="#065F46" font-family="ui-monospace, 'SFMono-Regular', Menlo, monospace" font-size="14">@MainActor state owner</text>

  <rect x="420" y="384" width="314" height="86" rx="20" fill="#ECFDF5" stroke="#059669" stroke-width="3"/>
  <text x="446" y="417" fill="#047857" font-family="ui-monospace, 'SFMono-Regular', Menlo, monospace" font-size="17" font-weight="700">App Layer: command reducers</text>
  <text x="446" y="442" fill="#065F46" font-family="ui-monospace, 'SFMono-Regular', Menlo, monospace" font-size="14">predictable state mutations</text>

  <rect x="800" y="136" width="304" height="72" rx="18" fill="#FFF7ED" stroke="#EA580C" stroke-width="3"/>
  <text x="824" y="168" fill="#C2410C" font-family="ui-monospace, 'SFMono-Regular', Menlo, monospace" font-size="16" font-weight="700">Core: file I/O pipeline</text>
  <text x="824" y="190" fill="#9A3412" font-family="ui-monospace, 'SFMono-Regular', Menlo, monospace" font-size="13">load / sanitize / decode</text>

  <rect x="800" y="226" width="304" height="72" rx="18" fill="#FFF7ED" stroke="#EA580C" stroke-width="3"/>
  <text x="824" y="258" fill="#C2410C" font-family="ui-monospace, 'SFMono-Regular', Menlo, monospace" font-size="16" font-weight="700">Core: syntax highlighting</text>
  <text x="824" y="280" fill="#9A3412" font-family="ui-monospace, 'SFMono-Regular', Menlo, monospace" font-size="13">runtime limits</text>

  <rect x="800" y="316" width="304" height="72" rx="18" fill="#FFF7ED" stroke="#EA580C" stroke-width="3"/>
  <text x="824" y="348" fill="#C2410C" font-family="ui-monospace, 'SFMono-Regular', Menlo, monospace" font-size="16" font-weight="700">Core: find / replace</text>
  <text x="824" y="370" fill="#9A3412" font-family="ui-monospace, 'SFMono-Regular', Menlo, monospace" font-size="13">selection engine</text>

  <rect x="800" y="406" width="304" height="72" rx="18" fill="#FFF7ED" stroke="#EA580C" stroke-width="3"/>
  <text x="824" y="438" fill="#C2410C" font-family="ui-monospace, 'SFMono-Regular', Menlo, monospace" font-size="16" font-weight="700">Core: markdown preview</text>
  <text x="824" y="460" fill="#9A3412" font-family="ui-monospace, 'SFMono-Regular', Menlo, monospace" font-size="13">renderer + export path</text>

  <rect x="800" y="496" width="304" height="72" rx="18" fill="#FFF7ED" stroke="#EA580C" stroke-width="3"/>
  <text x="824" y="528" fill="#C2410C" font-family="ui-monospace, 'SFMono-Regular', Menlo, monospace" font-size="16" font-weight="700">Core: unsupported-file safety</text>
  <text x="824" y="550" fill="#9A3412" font-family="ui-monospace, 'SFMono-Regular', Menlo, monospace" font-size="13">guardrails + fallback paths</text>

  <rect x="420" y="530" width="314" height="72" rx="18" fill="#FAF5FF" stroke="#9333EA" stroke-width="3"/>
  <text x="446" y="562" fill="#7E22CE" font-family="ui-monospace, 'SFMono-Regular', Menlo, monospace" font-size="16" font-weight="700">Infra: tabs + session restore</text>
  <text x="446" y="584" fill="#6B21A8" font-family="ui-monospace, 'SFMono-Regular', Menlo, monospace" font-size="13">window-isolated persistence</text>

  <rect x="420" y="618" width="314" height="72" rx="18" fill="#FAF5FF" stroke="#9333EA" stroke-width="3"/>
  <text x="446" y="650" fill="#7E22CE" font-family="ui-monospace, 'SFMono-Regular', Menlo, monospace" font-size="16" font-weight="700">Infra: settings + persistence</text>
  <text x="446" y="672" fill="#6B21A8" font-family="ui-monospace, 'SFMono-Regular', Menlo, monospace" font-size="13">preferences + restore policies</text>

  <rect x="800" y="618" width="146" height="72" rx="18" fill="#FAF5FF" stroke="#9333EA" stroke-width="3"/>
  <text x="822" y="650" fill="#7E22CE" font-family="ui-monospace, 'SFMono-Regular', Menlo, monospace" font-size="16" font-weight="700">Keychain</text>
  <text x="822" y="672" fill="#6B21A8" font-family="ui-monospace, 'SFMono-Regular', Menlo, monospace" font-size="13">SecureTokenStore</text>

  <rect x="958" y="618" width="146" height="72" rx="18" fill="#FAF5FF" stroke="#9333EA" stroke-width="3"/>
  <text x="980" y="650" fill="#7E22CE" font-family="ui-monospace, 'SFMono-Regular', Menlo, monospace" font-size="16" font-weight="700">Updater</text>
  <text x="980" y="672" fill="#6B21A8" font-family="ui-monospace, 'SFMono-Regular', Menlo, monospace" font-size="13">release manager</text>

  <path d="M320 221H392" stroke="#2563EB" stroke-width="4" stroke-linecap="round"/>
  <path d="M320 325H392" stroke="#2563EB" stroke-width="4" stroke-linecap="round"/>
  <path d="M392 221L378 213V229L392 221Z" fill="#2563EB"/>
  <path d="M392 325L378 317V333L392 325Z" fill="#2563EB"/>

  <path d="M577 246V262" stroke="#059669" stroke-width="4" stroke-linecap="round"/>
  <path d="M577 272L569 258H585L577 272Z" fill="#059669"/>
  <path d="M577 358V374" stroke="#059669" stroke-width="4" stroke-linecap="round"/>
  <path d="M577 384L569 370H585L577 384Z" fill="#059669"/>

  <path d="M734 315H780" stroke="#EA580C" stroke-width="4" stroke-linecap="round"/>
  <path d="M780 315L766 307V323L780 315Z" fill="#EA580C"/>

  <path d="M734 315C786 315 786 172 780 172" stroke="#EA580C" stroke-width="3" stroke-linecap="round"/>
  <path d="M780 172L766 164V180L780 172Z" fill="#EA580C"/>
  <path d="M734 315C790 315 790 262 780 262" stroke="#EA580C" stroke-width="3" stroke-linecap="round"/>
  <path d="M780 262L766 254V270L780 262Z" fill="#EA580C"/>
  <path d="M734 315C790 315 790 352 780 352" stroke="#EA580C" stroke-width="3" stroke-linecap="round"/>
  <path d="M780 352L766 344V360L780 352Z" fill="#EA580C"/>
  <path d="M734 315C790 315 790 442 780 442" stroke="#EA580C" stroke-width="3" stroke-linecap="round"/>
  <path d="M780 442L766 434V450L780 442Z" fill="#EA580C"/>
  <path d="M734 315C790 315 790 532 780 532" stroke="#EA580C" stroke-width="3" stroke-linecap="round"/>
  <path d="M780 532L766 524V540L780 532Z" fill="#EA580C"/>

  <path d="M577 470V514" stroke="#9333EA" stroke-width="4" stroke-linecap="round"/>
  <path d="M577 514L569 500H585L577 514Z" fill="#9333EA"/>
  <path d="M577 602V618" stroke="#9333EA" stroke-width="4" stroke-linecap="round"/>
  <path d="M577 618L569 604H585L577 618Z" fill="#9333EA"/>

  <path d="M734 315C770 315 770 654 790 654" stroke="#9333EA" stroke-width="3" stroke-linecap="round"/>
  <path d="M790 654L776 646V662L790 654Z" fill="#9333EA"/>
  <path d="M734 315C740 315 740 654 410 654" stroke="#9333EA" stroke-width="3" stroke-linecap="round"/>
  <path d="M410 654L424 646V662L410 654Z" fill="#9333EA"/>
  <path d="M734 426C770 426 770 566 410 566" stroke="#9333EA" stroke-width="3" stroke-linecap="round"/>
  <path d="M410 566L424 558V574L410 566Z" fill="#9333EA"/>
  <path d="M734 315C782 315 782 654 948 654" stroke="#9333EA" stroke-width="3" stroke-linecap="round"/>
  <path d="M948 654L934 646V662L948 654Z" fill="#9333EA"/>

  <circle cx="96" cy="720" r="9" fill="#2563EB"/>
  <text x="114" y="726" fill="#1E293B" font-family="ui-sans-serif, -apple-system, BlinkMacSystemFont, 'Segoe UI', sans-serif" font-size="15">Platform shell</text>
  <circle cx="286" cy="720" r="9" fill="#059669"/>
  <text x="304" y="726" fill="#1E293B" font-family="ui-sans-serif, -apple-system, BlinkMacSystemFont, 'Segoe UI', sans-serif" font-size="15">App orchestration</text>
  <circle cx="506" cy="720" r="9" fill="#EA580C"/>
  <text x="524" y="726" fill="#1E293B" font-family="ui-sans-serif, -apple-system, BlinkMacSystemFont, 'Segoe UI', sans-serif" font-size="15">Core services</text>
  <circle cx="674" cy="720" r="9" fill="#9333EA"/>
  <text x="692" y="726" fill="#1E293B" font-family="ui-sans-serif, -apple-system, BlinkMacSystemFont, 'Segoe UI', sans-serif" font-size="15">Infrastructure</text>
</svg>
