<svg xmlns="http://www.w3.org/2000/svg" width="1600" height="1200" viewBox="0 0 1600 1200" role="img" aria-label="Code Snapshot styled preview">
  <defs>
    <linearGradient id="bg" x1="0" y1="0" x2="1" y2="1">
      <stop offset="0%" stop-color="#ff7b54"/>
      <stop offset="100%" stop-color="#f04db8"/>
    </linearGradient>
    <linearGradient id="title" x1="0" y1="0" x2="1" y2="0">
      <stop offset="0%" stop-color="#1e1b30"/>
      <stop offset="100%" stop-color="#161429"/>
    </linearGradient>
    <filter id="shadow" x="-20%" y="-20%" width="140%" height="140%">
      <feDropShadow dx="0" dy="16" stdDeviation="18" flood-color="#0f172a" flood-opacity="0.45"/>
    </filter>
  </defs>

  <rect x="0" y="0" width="1600" height="1200" fill="url(#bg)"/>

  <g filter="url(#shadow)">
    <rect x="130" y="110" width="1340" height="980" rx="52" fill="#111427"/>
    <rect x="130" y="110" width="1340" height="92" rx="52" fill="url(#title)"/>
    <rect x="130" y="170" width="1340" height="32" fill="url(#title)"/>

    <circle cx="190" cy="156" r="13" fill="#ff5f57"/>
    <circle cx="230" cy="156" r="13" fill="#febc2e"/>
    <circle cx="270" cy="156" r="13" fill="#28c840"/>

    <text x="1300" y="163" text-anchor="end" fill="#b8bfd8" font-family="ui-monospace, SFMono-Regular, Menlo, Monaco, Consolas, monospace" font-size="34" font-weight="600">Code Snapshot</text>

    <g font-family="ui-monospace, SFMono-Regular, Menlo, Monaco, Consolas, monospace" font-size="44">
      <text x="210" y="280" fill="#6d7693">1</text>
      <text x="270" y="280" fill="#f472b6">## Share Shot Highlight</text>

      <text x="210" y="350" fill="#6d7693">2</text>
      <text x="270" y="350" fill="#f8fafc">Select code and click</text>
      <text x="900" y="350" fill="#22d3ee">camera.viewfinder</text>

      <text x="210" y="420" fill="#6d7693">3</text>
      <text x="270" y="420" fill="#f8fafc">Open styled composer, tweak frame + colors,</text>

      <text x="210" y="490" fill="#6d7693">4</text>
      <text x="270" y="490" fill="#f8fafc">then press</text>
      <text x="560" y="490" fill="#60a5fa">Share</text>
      <text x="720" y="490" fill="#f8fafc">to export PNG.</text>

      <text x="210" y="630" fill="#6d7693">5</text>
      <text x="270" y="630" fill="#c084fc">- Toolbar: Create Code Snapshot</text>

      <text x="210" y="700" fill="#6d7693">6</text>
      <text x="270" y="700" fill="#34d399">- Context menu: Create Code Snapshot</text>

      <text x="210" y="770" fill="#6d7693">7</text>
      <text x="270" y="770" fill="#f59e0b">- Output: share-ready visual code card</text>
    </g>
  </g>
</svg>
