<?xml version="1.0" encoding="UTF-8"?>
<!-- Generated by Pixelmator Pro 3.7.1 -->
<svg width="1024" height="1024" viewBox="0 0 1024 1024" xmlns="http://www.w3.org/2000/svg">
    <g id="Final">
        <g id="Angle-Brackets">
            <g id="Left">
                <path id="Shadow" fill="#c7c7c7" fill-rule="evenodd" stroke="none" d="M 247.263016 590.503174 C 240.194 602.747009 224.537766 606.942078 212.293839 599.873047 L 95.612099 532.506836 C 83.36821 525.437744 79.173119 509.781616 86.242134 497.53772 C 88.724373 493.238342 92.265373 489.931458 96.345673 487.756165 L 212.31459 420.801514 C 224.558487 413.732483 240.214691 417.927612 247.283707 430.171448 C 254.352722 442.415405 250.157669 458.071533 237.913773 465.140564 L 159.620407 510.343262 L 237.893005 555.534058 C 250.136948 562.603027 254.332031 578.259277 247.263016 590.503174 Z"/>
                <path id="Main" fill="#ffffff" fill-rule="evenodd" stroke="none" d="M 247.176712 582.362122 C 240.107697 594.606079 224.451462 598.801086 212.207535 591.732056 L 95.525795 524.365845 C 83.281906 517.296753 79.086807 501.640625 86.155823 489.396667 C 88.638023 485.097412 92.179008 481.790527 96.259254 479.615234 L 212.228271 412.660522 C 224.472168 405.591492 240.128387 409.78656 247.197403 422.030457 C 254.266418 434.274353 250.071335 449.930542 237.827454 456.999573 L 159.534088 502.202271 L 237.806702 547.393005 C 250.050644 554.462036 254.245728 570.118225 247.176712 582.362122 Z"/>
            </g>
            <g id="Right">
                <path id="path1" fill="#c7c7c7" fill-rule="evenodd" stroke="none" d="M 782.829895 590.503174 C 789.898926 602.747009 805.555176 606.942078 817.799133 599.873047 L 934.480835 532.506836 C 946.724731 525.437744 950.9198 509.781616 943.85083 497.53772 C 941.368591 493.238342 937.827576 489.931458 933.747253 487.756165 L 817.77832 420.801514 C 805.534485 413.732483 789.878235 417.927612 782.809265 430.171448 C 775.740234 442.415405 779.935303 458.071533 792.179199 465.140564 L 870.472534 510.343262 L 792.199951 555.534058 C 779.955994 562.603027 775.760925 578.259277 782.829895 590.503174 Z"/>
                <path id="path2" fill="#ffffff" fill-rule="evenodd" stroke="none" d="M 782.829895 582.419189 C 789.898926 594.663086 805.555176 598.858154 817.799133 591.789063 L 934.480835 524.422852 C 946.724731 517.353882 950.9198 501.697693 943.85083 489.453735 C 941.368591 485.154358 937.827576 481.847473 933.747253 479.672241 L 817.77832 412.71759 C 805.534485 405.64856 789.878235 409.843628 782.809265 422.087524 C 775.740234 434.331421 779.935303 449.98761 792.179199 457.05658 L 870.472534 502.259338 L 792.199951 547.450073 C 779.955994 554.519104 775.760925 570.175293 782.829895 582.419189 Z"/>
            </g>
        </g>
    </g>
</svg>
